<svg xmlns="http://www.w3.org/2000/svg" viewBox="0 0 269.17 69.9"><defs><style>.cls-1{font-size:60px;fill:#1f2a62;font-family:BerlinSansFB-Reg, Berlin Sans FB;}.cls-2{fill:#5075d5;}</style></defs><title>Recurso 102</title><g id="Capa_2" data-name="Capa 2"><g id="Capa_1-2" data-name="Capa 1"><text class="cls-1" transform="translate(89.29 54.13)">SGAAE</text><path class="cls-2" d="M65.32,48.1,45.15,52.74a16,16,0,0,0-2.32.57c-5.8,2.33-11.44,1-17.15-.47C18.4,51,11.05,49.42,3.73,47.73l-.4-.08C1.85,47.32.41,46.88.38,45s1.39-2.38,2.89-2.72l15.94-3.67c4.93-1.13,9.85-2.29,14.79-3.35a6.56,6.56,0,0,1,2.72,0q15.27,3.45,30.53,7c2.61.6,3.07,1.16,3.07,3.81q0,10.2,0,20.38c0,.14,0,.27,0,.4-.08,2.06-1,3.19-2.6,3.06-1.83-.16-2.41-1.35-2.4-3,0-5.46,0-10.92,0-16.38Z"/><path class="cls-2" d="M52.86,5.8c0,5.54,0,10.86,0,16.18,0,4.7-3.33,8.05-7.68,8A7.49,7.49,0,1,1,45.92,15c.53,0,1,.16,1.87.29V11.32c0-2.8,0-5.6,0-8.4C47.85.6,49.11-.44,51.33.17,57,1.71,62.59,3.36,68.22,5a2.65,2.65,0,0,1,2.1,2.79c0,6.67.1,13.34-.07,20a7.34,7.34,0,0,1-8.14,7.18,7.58,7.58,0,0,1-6.76-8.21,7.46,7.46,0,0,1,8.42-6.66l1.55.13c0-3.45,0-6.76,0-10.08a1.33,1.33,0,0,0-.74-1C60.74,8,56.91,6.94,52.86,5.8Z"/><path class="cls-2" d="M15.06,52.92C21.3,54.35,27.25,55.77,33.23,57a10.16,10.16,0,0,0,4.11,0c6-1.29,12-2.72,18.25-4.14.73,3,1.48,6,2.12,9a2.38,2.38,0,0,1-1.92,3Q46,67.39,36.24,69.75a5.24,5.24,0,0,1-2.36-.08q-9.2-2.27-18.37-4.62c-2.47-.63-3-1.56-2.41-4.07S14.38,55.71,15.06,52.92Z"/><path class="cls-2" d="M17.64,15.51,15.3,13.2a20.56,20.56,0,0,0,5-13A16.4,16.4,0,0,1,29.07,4.1Z"/><path class="cls-2" d="M0,20a21.1,21.1,0,0,0,13.45-5l2.18,2.27L4.08,28.85Z"/><path class="cls-2" d="M31.6,6.1l4,8.75a21.56,21.56,0,0,0-13.43,5.06L20.3,17.59Z"/><path class="cls-2" d="M15.23,35.2l-8.82-4L18,19.66l2.21,2.18A21.54,21.54,0,0,0,15.23,35.2Z"/><path class="cls-2" d="M35.3,17.4a17,17,0,0,1-3.95,11.06l-7-7.07C27.14,18.86,30.87,17.67,35.3,17.4Z"/><path class="cls-2" d="M17.83,35a17.21,17.21,0,0,1,3.89-11l7.07,7A17,17,0,0,1,17.83,35Z"/><path class="cls-2" d="M6.82,3.9A16.65,16.65,0,0,1,17.72,0a16.6,16.6,0,0,1-3.91,11.06Z"/><path class="cls-2" d="M11.17,13.64A16.76,16.76,0,0,1,.42,17.41,16.37,16.37,0,0,1,4.14,6.59Z"/></g></g></svg>